# xmcd
#
# Track frame offsets:
#	150
#	10615
#	25487
#	40750
#	51657
#	69025
#	80620
#	98440
#	107950
#	123330
#	136065
#	149130
#	166250
#	178710
#	196750
#	215602
#
# Disc length: 3071 seconds
#
# Revision: 1
# Processed by: cddbd v1.5.2PL0 Copyright (c) Steve Scherf et al.
# Submitted via: EasyCDDAExtractor 11.1.0.1
#
DISCID=db0bfd10
DTITLE=Sunnyland Slim and Sam Burkhardt - Live in Europe 1975
DYEAR=75
DGENRE=Blues
TTITLE0=It's You, Baby
TTITLE1=Smile On My Face
TTITLE2=Dust My Broom
TTITLE3=Sunnyland Special
TTITLE4=Backwater Blues
TTITLE5=I Had It Hard
TTITLE6=Everytime I Get To Drinking
TTITLE7=Got To Get To My Baby
TTITLE8=That's All Right
TTITLE9=She's Got A Thing Going On
TTITLE10=For You My Love
TTITLE11=How Many More Years
TTITLE12=Rocking The House
TTITLE13=Blue Shadows
TTITLE14=Stepmother Blues
TTITLE15=Chicago Jump
EXTD=
EXTT0=
EXTT1=
EXTT2=
EXTT3=
EXTT4=
EXTT5=
EXTT6=
EXTT7=
EXTT8=
EXTT9=
EXTT10=
EXTT11=
EXTT12=
EXTT13=
EXTT14=
EXTT15=
PLAYORDER=
